<mxfile host="app.diagrams.net" agent="Mozilla/5.0 (Windows NT 10.0; Win64; x64) AppleWebKit/537.36 (KHTML, like Gecko) Chrome/131.0.0.0 Safari/537.36" version="25.0.3">
  <diagram id="C5RBs43oDa-KdzZeNtuy" name="Page-1">
    <mxGraphModel dx="737" dy="298" grid="1" gridSize="10" guides="1" tooltips="1" connect="1" arrows="1" fold="1" page="1" pageScale="1" pageWidth="827" pageHeight="1169" math="0" shadow="0">
      <root>
        <mxCell id="WIyWlLk6GJQsqaUBKTNV-0" />
        <mxCell id="WIyWlLk6GJQsqaUBKTNV-1" parent="WIyWlLk6GJQsqaUBKTNV-0" />
        <mxCell id="VkjgVf3e3KL_6zLmR9lP-12" style="edgeStyle=orthogonalEdgeStyle;rounded=0;orthogonalLoop=1;jettySize=auto;html=1;entryX=0;entryY=0.5;entryDx=0;entryDy=0;" edge="1" parent="WIyWlLk6GJQsqaUBKTNV-1" source="VkjgVf3e3KL_6zLmR9lP-0" target="VkjgVf3e3KL_6zLmR9lP-6">
          <mxGeometry relative="1" as="geometry" />
        </mxCell>
        <mxCell id="VkjgVf3e3KL_6zLmR9lP-0" value="&lt;div&gt;&amp;lt;&amp;lt;controller&amp;gt;&amp;gt;&lt;/div&gt;orderConfirmationHandler" style="swimlane;fontStyle=1;align=center;verticalAlign=top;childLayout=stackLayout;horizontal=1;startSize=50;horizontalStack=0;resizeParent=1;resizeParentMax=0;resizeLast=0;collapsible=1;marginBottom=0;whiteSpace=wrap;html=1;" vertex="1" parent="WIyWlLk6GJQsqaUBKTNV-1">
          <mxGeometry x="30" y="494" width="160" height="80" as="geometry" />
        </mxCell>
        <mxCell id="VkjgVf3e3KL_6zLmR9lP-1" value="" style="line;strokeWidth=1;fillColor=none;align=left;verticalAlign=middle;spacingTop=-1;spacingLeft=3;spacingRight=3;rotatable=0;labelPosition=right;points=[];portConstraint=eastwest;strokeColor=inherit;" vertex="1" parent="VkjgVf3e3KL_6zLmR9lP-0">
          <mxGeometry y="50" width="160" height="30" as="geometry" />
        </mxCell>
        <mxCell id="VkjgVf3e3KL_6zLmR9lP-2" style="edgeStyle=orthogonalEdgeStyle;rounded=0;orthogonalLoop=1;jettySize=auto;html=1;entryX=0.5;entryY=0;entryDx=0;entryDy=0;" edge="1" parent="WIyWlLk6GJQsqaUBKTNV-1" source="VkjgVf3e3KL_6zLmR9lP-3" target="VkjgVf3e3KL_6zLmR9lP-0">
          <mxGeometry relative="1" as="geometry" />
        </mxCell>
        <mxCell id="VkjgVf3e3KL_6zLmR9lP-3" value="&lt;div&gt;&amp;lt;&amp;lt;boundary&amp;gt;&amp;gt;&lt;/div&gt;SalesDeptWindow" style="swimlane;fontStyle=1;align=center;verticalAlign=top;childLayout=stackLayout;horizontal=1;startSize=50;horizontalStack=0;resizeParent=1;resizeParentMax=0;resizeLast=0;collapsible=1;marginBottom=0;whiteSpace=wrap;html=1;" vertex="1" parent="WIyWlLk6GJQsqaUBKTNV-1">
          <mxGeometry x="30" y="330" width="160" height="80" as="geometry" />
        </mxCell>
        <mxCell id="VkjgVf3e3KL_6zLmR9lP-4" value="" style="line;strokeWidth=1;fillColor=none;align=left;verticalAlign=middle;spacingTop=-1;spacingLeft=3;spacingRight=3;rotatable=0;labelPosition=right;points=[];portConstraint=eastwest;strokeColor=inherit;" vertex="1" parent="VkjgVf3e3KL_6zLmR9lP-3">
          <mxGeometry y="50" width="160" height="30" as="geometry" />
        </mxCell>
        <mxCell id="VkjgVf3e3KL_6zLmR9lP-5" value="UserProfile" style="swimlane;fontStyle=1;align=center;verticalAlign=top;childLayout=stackLayout;horizontal=1;startSize=26;horizontalStack=0;resizeParent=1;resizeParentMax=0;resizeLast=0;collapsible=1;marginBottom=0;whiteSpace=wrap;html=1;" vertex="1" parent="WIyWlLk6GJQsqaUBKTNV-1">
          <mxGeometry x="260" y="475" width="190" height="210" as="geometry" />
        </mxCell>
        <mxCell id="VkjgVf3e3KL_6zLmR9lP-6" value="- Cust_id: int {key}&lt;div&gt;- Cust_name: string&lt;/div&gt;&lt;div&gt;- Cust_phoneNum: string&lt;/div&gt;&lt;div&gt;- Cust_Email: string&lt;/div&gt;&lt;div&gt;- Cust_Address: string&lt;/div&gt;&lt;div&gt;- Nationality: string&lt;/div&gt;&lt;div&gt;- Bank_Acc: int&lt;/div&gt;&lt;div&gt;- Date_Birth: date&lt;/div&gt;&lt;div&gt;- auth_Credit_Worthiness: bool&lt;/div&gt;&lt;div&gt;&lt;br style=&quot;text-align: center;&quot;&gt;&lt;/div&gt;" style="text;strokeColor=none;fillColor=none;align=left;verticalAlign=top;spacingLeft=4;spacingRight=4;overflow=hidden;rotatable=0;points=[[0,0.5],[1,0.5]];portConstraint=eastwest;whiteSpace=wrap;html=1;" vertex="1" parent="VkjgVf3e3KL_6zLmR9lP-5">
          <mxGeometry y="26" width="190" height="134" as="geometry" />
        </mxCell>
        <mxCell id="VkjgVf3e3KL_6zLmR9lP-7" value="" style="line;strokeWidth=1;fillColor=none;align=left;verticalAlign=middle;spacingTop=-1;spacingLeft=3;spacingRight=3;rotatable=0;labelPosition=right;points=[];portConstraint=eastwest;strokeColor=inherit;" vertex="1" parent="VkjgVf3e3KL_6zLmR9lP-5">
          <mxGeometry y="160" width="190" height="50" as="geometry" />
        </mxCell>
        <mxCell id="VkjgVf3e3KL_6zLmR9lP-8" value="Order" style="swimlane;fontStyle=1;align=center;verticalAlign=top;childLayout=stackLayout;horizontal=1;startSize=26;horizontalStack=0;resizeParent=1;resizeParentMax=0;resizeLast=0;collapsible=1;marginBottom=0;whiteSpace=wrap;html=1;" vertex="1" parent="WIyWlLk6GJQsqaUBKTNV-1">
          <mxGeometry x="517" y="405" width="220" height="200" as="geometry" />
        </mxCell>
        <mxCell id="VkjgVf3e3KL_6zLmR9lP-9" value="&lt;span style=&quot;text-wrap-mode: nowrap;&quot;&gt;- Ord_Id : int {key}&lt;/span&gt;&lt;div style=&quot;text-wrap-mode: nowrap;&quot;&gt;- Booking _Status: bool&lt;/div&gt;&lt;div style=&quot;text-wrap-mode: nowrap;&quot;&gt;- Products: string&lt;/div&gt;&lt;div style=&quot;text-wrap-mode: nowrap;&quot;&gt;- SalesDept_Empl: string&lt;/div&gt;&lt;div style=&quot;text-wrap-mode: nowrap;&quot;&gt;- Cust_Pref: string&lt;/div&gt;&lt;div style=&quot;text-wrap-mode: nowrap;&quot;&gt;- Ord_date: date&lt;/div&gt;&lt;div style=&quot;text-wrap-mode: nowrap;&quot;&gt;- Ord_application: blob&lt;/div&gt;&lt;div style=&quot;text-wrap-mode: nowrap;&quot;&gt;- Sales_dept._digital_signature : blob&lt;/div&gt;" style="text;strokeColor=none;fillColor=none;align=left;verticalAlign=top;spacingLeft=4;spacingRight=4;overflow=hidden;rotatable=0;points=[[0,0.5],[1,0.5]];portConstraint=eastwest;whiteSpace=wrap;html=1;" vertex="1" parent="VkjgVf3e3KL_6zLmR9lP-8">
          <mxGeometry y="26" width="220" height="124" as="geometry" />
        </mxCell>
        <mxCell id="VkjgVf3e3KL_6zLmR9lP-10" value="" style="line;strokeWidth=1;fillColor=none;align=left;verticalAlign=middle;spacingTop=-1;spacingLeft=3;spacingRight=3;rotatable=0;labelPosition=right;points=[];portConstraint=eastwest;strokeColor=inherit;" vertex="1" parent="VkjgVf3e3KL_6zLmR9lP-8">
          <mxGeometry y="150" width="220" height="50" as="geometry" />
        </mxCell>
        <mxCell id="VkjgVf3e3KL_6zLmR9lP-11" style="edgeStyle=orthogonalEdgeStyle;rounded=0;orthogonalLoop=1;jettySize=auto;html=1;entryX=0;entryY=0.5;entryDx=0;entryDy=0;" edge="1" parent="WIyWlLk6GJQsqaUBKTNV-1" source="VkjgVf3e3KL_6zLmR9lP-6" target="VkjgVf3e3KL_6zLmR9lP-9">
          <mxGeometry relative="1" as="geometry" />
        </mxCell>
        <mxCell id="VkjgVf3e3KL_6zLmR9lP-13" value="ticket" style="swimlane;fontStyle=1;align=center;verticalAlign=top;childLayout=stackLayout;horizontal=1;startSize=26;horizontalStack=0;resizeParent=1;resizeParentMax=0;resizeLast=0;collapsible=1;marginBottom=0;whiteSpace=wrap;html=1;" vertex="1" parent="WIyWlLk6GJQsqaUBKTNV-1">
          <mxGeometry x="910" y="110" width="160" height="270" as="geometry" />
        </mxCell>
        <mxCell id="VkjgVf3e3KL_6zLmR9lP-14" value="&lt;span style=&quot;text-wrap-mode: nowrap;&quot;&gt;- Ticket_ID : Int {key}&lt;/span&gt;&lt;div style=&quot;text-wrap-mode: nowrap;&quot;&gt;&lt;div style=&quot;text-wrap-mode: wrap;&quot;&gt;- flight_no : int&lt;/div&gt;&lt;div style=&quot;text-wrap-mode: wrap;&quot;&gt;- dept_loc : string&lt;/div&gt;&lt;div style=&quot;text-wrap-mode: wrap;&quot;&gt;- dept_date : date&lt;/div&gt;&lt;div style=&quot;text-wrap-mode: wrap;&quot;&gt;- dept_time : time&lt;/div&gt;&lt;div style=&quot;text-wrap-mode: wrap;&quot;&gt;- Arr_loc : string&lt;/div&gt;&lt;div style=&quot;text-wrap-mode: wrap;&quot;&gt;- Arr_date : date&lt;/div&gt;&lt;div style=&quot;text-wrap-mode: wrap;&quot;&gt;- Arr_time : Time&lt;/div&gt;&lt;div style=&quot;text-wrap-mode: wrap;&quot;&gt;- seat_no : int&lt;/div&gt;&lt;div style=&quot;text-wrap-mode: wrap;&quot;&gt;- seat_discreption : string&lt;/div&gt;&lt;div style=&quot;text-wrap-mode: wrap;&quot;&gt;- class : sting&lt;/div&gt;&lt;div style=&quot;text-wrap-mode: wrap;&quot;&gt;- price : currency&lt;/div&gt;&lt;/div&gt;" style="text;strokeColor=none;fillColor=none;align=left;verticalAlign=top;spacingLeft=4;spacingRight=4;overflow=hidden;rotatable=0;points=[[0,0.5],[1,0.5]];portConstraint=eastwest;whiteSpace=wrap;html=1;" vertex="1" parent="VkjgVf3e3KL_6zLmR9lP-13">
          <mxGeometry y="26" width="160" height="184" as="geometry" />
        </mxCell>
        <mxCell id="VkjgVf3e3KL_6zLmR9lP-15" value="" style="line;strokeWidth=1;fillColor=none;align=left;verticalAlign=middle;spacingTop=-1;spacingLeft=3;spacingRight=3;rotatable=0;labelPosition=right;points=[];portConstraint=eastwest;strokeColor=inherit;" vertex="1" parent="VkjgVf3e3KL_6zLmR9lP-13">
          <mxGeometry y="210" width="160" height="60" as="geometry" />
        </mxCell>
        <mxCell id="VkjgVf3e3KL_6zLmR9lP-16" value="Room" style="swimlane;fontStyle=1;align=center;verticalAlign=top;childLayout=stackLayout;horizontal=1;startSize=26;horizontalStack=0;resizeParent=1;resizeParentMax=0;resizeLast=0;collapsible=1;marginBottom=0;whiteSpace=wrap;html=1;" vertex="1" parent="WIyWlLk6GJQsqaUBKTNV-1">
          <mxGeometry x="911" y="420" width="160" height="148" as="geometry" />
        </mxCell>
        <mxCell id="VkjgVf3e3KL_6zLmR9lP-17" value="- room_id: int {key}&lt;div&gt;- R_num: int&lt;/div&gt;&lt;div&gt;- R_type: string&lt;/div&gt;&lt;div&gt;- R_availiblity: bool&lt;/div&gt;&lt;div&gt;- R_ameneties: string&lt;/div&gt;&lt;div&gt;- R_price : currency&lt;/div&gt;" style="text;strokeColor=none;fillColor=none;align=left;verticalAlign=top;spacingLeft=4;spacingRight=4;overflow=hidden;rotatable=0;points=[[0,0.5],[1,0.5]];portConstraint=eastwest;whiteSpace=wrap;html=1;" vertex="1" parent="VkjgVf3e3KL_6zLmR9lP-16">
          <mxGeometry y="26" width="160" height="94" as="geometry" />
        </mxCell>
        <mxCell id="VkjgVf3e3KL_6zLmR9lP-18" value="" style="line;strokeWidth=1;fillColor=none;align=left;verticalAlign=middle;spacingTop=-1;spacingLeft=3;spacingRight=3;rotatable=0;labelPosition=right;points=[];portConstraint=eastwest;strokeColor=inherit;" vertex="1" parent="VkjgVf3e3KL_6zLmR9lP-16">
          <mxGeometry y="120" width="160" height="28" as="geometry" />
        </mxCell>
        <mxCell id="VkjgVf3e3KL_6zLmR9lP-19" value="Car" style="swimlane;fontStyle=1;align=center;verticalAlign=top;childLayout=stackLayout;horizontal=1;startSize=26;horizontalStack=0;resizeParent=1;resizeParentMax=0;resizeLast=0;collapsible=1;marginBottom=0;whiteSpace=wrap;html=1;" vertex="1" parent="WIyWlLk6GJQsqaUBKTNV-1">
          <mxGeometry x="912" y="620" width="160" height="230" as="geometry" />
        </mxCell>
        <mxCell id="VkjgVf3e3KL_6zLmR9lP-20" value="&lt;div&gt;&lt;span style=&quot;background-color: initial;&quot;&gt;- Car_id: int {key}&amp;nbsp;&lt;/span&gt;&lt;/div&gt;&lt;div&gt;&lt;div&gt;- License_Num: string&lt;/div&gt;&lt;div&gt;- Model: string&lt;/div&gt;&lt;div&gt;- Make: string&lt;/div&gt;&lt;div&gt;- C_Type: string&lt;/div&gt;&lt;div&gt;- C_year: int&lt;/div&gt;&lt;div&gt;- Trans_Type: string&lt;/div&gt;&lt;div&gt;- Num_Seats: int&lt;/div&gt;&lt;div&gt;- Features: string&lt;/div&gt;&lt;div&gt;- Fuel_Type: string&amp;nbsp;&lt;/div&gt;&lt;div&gt;- Rental_Price: currency&lt;/div&gt;&lt;/div&gt;&lt;div&gt;- car_availibility: bool&lt;/div&gt;" style="text;strokeColor=none;fillColor=none;align=left;verticalAlign=top;spacingLeft=4;spacingRight=4;overflow=hidden;rotatable=0;points=[[0,0.5],[1,0.5]];portConstraint=eastwest;whiteSpace=wrap;html=1;" vertex="1" parent="VkjgVf3e3KL_6zLmR9lP-19">
          <mxGeometry y="26" width="160" height="174" as="geometry" />
        </mxCell>
        <mxCell id="VkjgVf3e3KL_6zLmR9lP-21" value="" style="line;strokeWidth=1;fillColor=none;align=left;verticalAlign=middle;spacingTop=-1;spacingLeft=3;spacingRight=3;rotatable=0;labelPosition=right;points=[];portConstraint=eastwest;strokeColor=inherit;" vertex="1" parent="VkjgVf3e3KL_6zLmR9lP-19">
          <mxGeometry y="200" width="160" height="30" as="geometry" />
        </mxCell>
        <mxCell id="VkjgVf3e3KL_6zLmR9lP-23" value="" style="endArrow=classic;html=1;rounded=0;exitX=0.983;exitY=0.798;exitDx=0;exitDy=0;exitPerimeter=0;entryX=-0.006;entryY=0.533;entryDx=0;entryDy=0;entryPerimeter=0;" edge="1" parent="WIyWlLk6GJQsqaUBKTNV-1" target="VkjgVf3e3KL_6zLmR9lP-20" source="VkjgVf3e3KL_6zLmR9lP-9">
          <mxGeometry width="50" height="50" relative="1" as="geometry">
            <mxPoint x="744" y="530" as="sourcePoint" />
            <mxPoint x="790" y="829" as="targetPoint" />
            <Array as="points">
              <mxPoint x="790" y="530" />
              <mxPoint x="790" y="739" />
            </Array>
          </mxGeometry>
        </mxCell>
        <mxCell id="VkjgVf3e3KL_6zLmR9lP-25" style="edgeStyle=orthogonalEdgeStyle;rounded=0;orthogonalLoop=1;jettySize=auto;html=1;entryX=0;entryY=0.5;entryDx=0;entryDy=0;" edge="1" parent="WIyWlLk6GJQsqaUBKTNV-1" source="VkjgVf3e3KL_6zLmR9lP-9" target="VkjgVf3e3KL_6zLmR9lP-17">
          <mxGeometry relative="1" as="geometry" />
        </mxCell>
        <mxCell id="VkjgVf3e3KL_6zLmR9lP-26" value="" style="endArrow=classic;html=1;rounded=0;exitX=1.014;exitY=0.315;exitDx=0;exitDy=0;exitPerimeter=0;entryX=0.001;entryY=0.566;entryDx=0;entryDy=0;entryPerimeter=0;" edge="1" parent="WIyWlLk6GJQsqaUBKTNV-1" source="VkjgVf3e3KL_6zLmR9lP-9" target="VkjgVf3e3KL_6zLmR9lP-14">
          <mxGeometry width="50" height="50" relative="1" as="geometry">
            <mxPoint x="450" y="620" as="sourcePoint" />
            <mxPoint x="840" y="140" as="targetPoint" />
            <Array as="points">
              <mxPoint x="840" y="470" />
              <mxPoint x="840" y="240" />
            </Array>
          </mxGeometry>
        </mxCell>
      </root>
    </mxGraphModel>
  </diagram>
</mxfile>
